# xmcd
#
# Track frame offsets:
# 150
# 15927
# 30763
# 49786
# 62164
# 80177
# 93562
# 107876
# 120396
# 133233
# 148858
# 174776
#
# Disc length: 2498 seconds
#
#
# Revision: 0
# Processed by: cddbd v1.5.2PL0 Copyright (c) Steve Scherf et al.
# Submitted via: FreeRIP 2.96 
#
DISCID=9a09c00c
DTITLE=Ronaldo do Cavaquinho - Pétalas de MPB
DYEAR=2005
DGENRE=Folk
TTITLE0=As rosas não falam
TTITLE1=Serra da boa esperança
TTITLE2=Vai ser tão fácil/Manhã de carnaval
TTITLE3=Lamentos
TTITLE4=Carolina
TTITLE5=Ave-Maria
TTITLE6=My Way
TTITLE7=Camundongo
TTITLE8=Naquela Mesa
TTITLE9=Chiquita
TTITLE10=Modinha/Cantiga por Luciana
TTITLE11=Um chorinho no Cariobrasa
EXTD=
EXTT0=
EXTT1=
EXTT2=
EXTT3=
EXTT4=
EXTT5=
EXTT6=
EXTT7=
EXTT8=
EXTT9=
EXTT10=
EXTT11=
PLAYORDER=
